<svg id="visual" viewBox="0 0 900 600" width="900" height="600" xmlns="http://www.w3.org/2000/svg" xmlns:xlink="http://www.w3.org/1999/xlink" version="1.1"><rect width="900" height="600" fill="#dd9f52"></rect><g><g transform="translate(546 562)"><path d="M0 -80.1L69.4 -40.1L69.4 40.1L0 80.1L-69.4 40.1L-69.4 -40.1Z" fill="#2c586e"></path></g><g transform="translate(767 121)"><path d="M0 -64L55.4 -32L55.4 32L0 64L-55.4 32L-55.4 -32Z" fill="#2c586e"></path></g><g transform="translate(591 295)"><path d="M0 -61L52.8 -30.5L52.8 30.5L0 61L-52.8 30.5L-52.8 -30.5Z" fill="#2c586e"></path></g><g transform="translate(324 431)"><path d="M0 -74L64.1 -37L64.1 37L0 74L-64.1 37L-64.1 -37Z" fill="#2c586e"></path></g><g transform="translate(284 149)"><path d="M0 -60L52 -30L52 30L0 60L-52 30L-52 -30Z" fill="#2c586e"></path></g><g transform="translate(34 115)"><path d="M0 -64L55.4 -32L55.4 32L0 64L-55.4 32L-55.4 -32Z" fill="#2c586e"></path></g><g transform="translate(750 336)"><path d="M0 -70L60.6 -35L60.6 35L0 70L-60.6 35L-60.6 -35Z" fill="#2c586e"></path></g><g transform="translate(572 61)"><path d="M0 -60L52 -30L52 30L0 60L-52 30L-52 -30Z" fill="#2c586e"></path></g><g transform="translate(157 309)"><path d="M0 -67L58 -33.5L58 33.5L0 67L-58 33.5L-58 -33.5Z" fill="#2c586e"></path></g><g transform="translate(36 448)"><path d="M0 -61L52.8 -30.5L52.8 30.5L0 61L-52.8 30.5L-52.8 -30.5Z" fill="#2c586e"></path></g></g></svg>